<svg xmlns="http://www.w3.org/2000/svg" viewBox="0 0 512 512">
  <path fill="currentColor" d="M256 160c12.15 0 24 4.6 34.4 12.3 10.3 7.7 18.2 18.2 22.1 30.1s3 24.6-2.6 35.7c-5.6 11.1-15.1 19.8-26.7 24.8V288h-54.4v-25.1c-11.6-5-21.1-13.7-26.7-24.8-5.6-11.1-6.5-23.8-2.6-35.7s11.8-22.4 22.1-30.1c10.4-7.7 22.2-12.3 34.4-12.3zm144 112c12.1 0 24 4.6 34.4 12.3 10.3 7.7 18.2 18.2 22.1 30.1s3 24.6-2.6 35.7c-5.6 11.1-15.1 19.8-26.7 24.8V400h-54.4v-25.1c-11.6-5-21.1-13.7-26.7-24.8-5.6-11.1-6.5-23.8-2.6-35.7s11.8-22.4 22.1-30.1c10.4-7.7 22.2-12.3 34.4-12.3zm-288 0c12.1 0 24 4.6 34.4 12.3 10.3 7.7 18.2 18.2 22.1 30.1s3 24.6-2.6 35.7c-5.6 11.1-15.1 19.8-26.7 24.8V400H56.8v-25.1c-11.6-5-21.1-13.7-26.7-24.8-5.6-11.1-6.5-23.8-2.6-35.7s11.8-22.4 22.1-30.1C62.1 276.6 73.9 272 86.1 272z"/>
</svg>